<?xml version="1.0" standalone="no"?>
<!DOCTYPE svg PUBLIC "-//W3C//DTD SVG 20010904//EN"
 "http://www.w3.org/TR/2001/REC-SVG-20010904/DTD/svg10.dtd">
<svg version="1.0" xmlns="http://www.w3.org/2000/svg"
 width="576.000000pt" height="494.000000pt" viewBox="0 0 576.000000 494.000000"
 preserveAspectRatio="xMidYMid meet">

<g transform="translate(0.000000,494.000000) scale(0.100000,-0.100000)"
fill="#000000" stroke="none">
<path d="M2790 4513 c-249 -26 -449 -82 -640 -179 -252 -128 -428 -266 -594
-465 -211 -251 -336 -513 -391 -819 -19 -102 -32 -360 -19 -360 5 0 41 12 79
26 39 14 117 42 176 62 l105 36 12 166 c17 237 66 419 171 635 119 244 273
414 501 552 178 107 344 154 614 173 246 17 474 -31 685 -143 133 -71 259
-166 374 -283 l45 -46 60 41 c33 22 82 61 109 86 l48 45 -57 55 c-127 120
-392 272 -578 333 -223 73 -498 106 -700 85z"/>
<path d="M1173 4325 c-46 -20 -68 -68 -54 -116 18 -61 82 -86 145 -58 26 12
56 63 56 96 0 26 -26 61 -60 78 -35 18 -46 18 -87 0z"/>
<path d="M4056 4316 c-56 -10 -79 -27 -58 -40 5 -3 54 -13 108 -21 54 -9 119
-27 144 -39 42 -21 45 -25 44 -62 -2 -132 -294 -380 -724 -616 -112 -61 -497
-237 -700 -320 -107 -43 -226 -92 -265 -108 -162 -66 -545 -205 -995 -360
-474 -163 -535 -189 -640 -275 -135 -111 -186 -254 -120 -338 23 -29 95 -65
154 -76 49 -9 67 -5 59 15 -21 56 157 155 677 374 107 45 224 95 260 110 36
16 110 46 165 69 89 35 220 93 425 188 36 17 99 45 140 63 289 126 781 398
975 539 109 79 385 299 439 350 100 94 224 243 261 312 71 136 50 206 -71 235
-70 16 -195 16 -278 0z"/>
<path d="M2849 4215 c23 -14 45 -25 48 -25 10 0 138 -83 195 -127 31 -23 88
-75 126 -113 70 -71 91 -98 195 -262 l56 -87 43 23 c250 135 308 168 308 171
0 1 -17 23 -38 49 -79 95 -299 233 -492 309 -112 44 -325 87 -430 87 l-55 0
44 -25z"/>
<path d="M2667 4033 c62 -156 148 -414 192 -577 16 -59 32 -110 35 -113 8 -9
456 190 456 202 0 15 -48 97 -95 165 -145 205 -333 357 -539 434 -112 42 -111
45 -49 -111z"/>
<path d="M2448 4113 c-74 -80 -154 -327 -177 -553 -16 -152 -25 -456 -14 -463
5 -3 43 6 84 22 41 15 144 54 229 86 85 31 165 61 178 66 21 8 23 13 16 57 -4
26 -20 88 -35 137 -16 50 -29 95 -29 101 0 31 -158 473 -194 542 -9 18 -20 32
-24 32 -5 0 -20 -12 -34 -27z"/>
<path d="M4598 4022 c-4 -73 -10 -98 -36 -151 -101 -201 -414 -479 -799 -709
-174 -105 -488 -270 -648 -340 -399 -176 -537 -234 -697 -292 -103 -38 -354
-141 -488 -200 -36 -16 -104 -45 -151 -64 -207 -83 -472 -231 -576 -322 -134
-118 -162 -274 -64 -357 31 -26 66 -39 143 -52 34 -6 36 -5 43 24 9 42 51 92
137 162 149 123 390 250 983 517 467 211 647 299 845 414 450 263 731 466
1064 772 209 192 351 404 350 520 -1 55 -13 86 -48 124 -48 53 -53 49 -58 -46z"/>
<path d="M2246 4065 c-105 -55 -275 -229 -380 -388 -120 -183 -226 -524 -226
-726 l0 -91 113 41 c61 23 171 62 243 88 l132 46 5 250 c6 257 19 381 56 515
32 117 38 135 66 206 15 36 25 68 23 70 -2 2 -16 -3 -32 -11z"/>
<path d="M4250 3747 c-42 -39 -107 -99 -145 -133 -67 -58 -69 -62 -58 -87 7
-15 18 -27 25 -27 17 1 134 95 232 187 l78 73 -22 30 c-12 16 -24 30 -28 30
-4 0 -41 -33 -82 -73z"/>
<path d="M4796 3659 c-7 -76 -51 -161 -157 -302 -170 -229 -416 -433 -774
-643 -44 -26 -100 -59 -125 -74 -96 -59 -458 -245 -561 -290 -41 -18 -101 -45
-134 -60 -161 -77 -329 -150 -515 -225 -233 -95 -274 -113 -530 -237 -298
-144 -441 -239 -525 -351 -67 -89 -79 -141 -46 -213 15 -33 30 -47 74 -68 46
-23 68 -27 143 -28 86 -1 204 18 204 32 0 4 -33 13 -74 19 -92 15 -106 28 -78
73 46 74 212 186 487 328 198 103 205 106 355 175 169 78 693 346 839 429 73
42 135 76 136 76 2 0 61 34 132 76 127 76 234 147 453 301 214 150 451 373
581 546 141 187 185 292 180 429 -1 24 -34 68 -51 68 -4 0 -10 -28 -14 -61z"/>
<path d="M3920 3459 c-194 -138 -285 -202 -298 -206 -19 -8 -11 -48 9 -47 26
2 363 218 389 249 9 11 10 24 4 44 l-9 28 -95 -68z"/>
<path d="M4465 3415 c-95 -94 -226 -218 -268 -252 -38 -30 -38 -31 -27 -72 6
-22 13 -41 16 -41 20 0 242 198 323 290 l60 67 -22 34 -22 35 -60 -61z"/>
<path d="M3335 3084 c-82 -46 -187 -103 -232 -126 -46 -24 -83 -48 -83 -55 0
-9 10 -8 38 4 34 14 329 160 397 197 17 9 36 16 43 16 15 0 12 42 -3 46 -5 1
-77 -36 -160 -82z"/>
<path d="M4918 3081 c-26 -24 -33 -36 -33 -69 0 -52 33 -81 89 -82 87 0 127
91 67 151 -39 38 -80 39 -123 0z"/>
<path d="M794 3089 c-27 -14 -54 -60 -54 -94 0 -38 44 -75 90 -75 66 0 118 74
89 127 -24 44 -80 63 -125 42z"/>
<path d="M4515 2912 c-77 -80 -162 -160 -190 -177 l-49 -32 2 -119 c5 -197
-29 -429 -90 -609 -81 -240 -323 -550 -524 -672 -108 -66 -265 -127 -393 -153
-196 -40 -537 -22 -726 37 -140 44 -316 143 -415 232 -25 22 -51 41 -58 41
-15 0 -157 -94 -168 -111 -10 -17 31 -48 161 -123 261 -150 488 -221 782 -247
422 -38 873 116 1238 423 176 147 304 307 402 501 150 296 214 614 194 969 -5
86 -13 164 -18 172 -6 11 -41 -20 -148 -132z"/>
<path d="M3955 2980 c-49 -38 -129 -95 -177 -127 -73 -48 -88 -62 -88 -84 0
-14 3 -28 6 -31 7 -8 114 53 259 145 61 38 111 71 113 73 6 4 -10 94 -17 93
-3 0 -46 -31 -96 -69z"/>
<path d="M2740 2786 c-80 -34 -167 -74 -195 -88 -27 -14 -86 -38 -130 -53 -86
-30 -112 -45 -78 -45 19 0 200 69 288 110 79 37 238 100 251 100 8 0 14 9 14
20 0 11 -1 20 -2 20 -2 0 -68 -29 -148 -64z"/>
<path d="M3564 2710 c-16 -16 -124 -81 -211 -126 -45 -24 -99 -54 -120 -67
-21 -14 -67 -39 -101 -56 -69 -35 -77 -61 -9 -32 23 10 110 54 192 97 83 43
178 92 212 109 47 23 62 35 62 52 1 25 -12 36 -25 23z"/>
<path d="M4070 2538 c-82 -67 -282 -201 -317 -212 -18 -6 -20 -12 -16 -45 8
-59 -15 -356 -37 -483 -23 -132 -45 -204 -105 -340 -24 -54 -38 -95 -32 -91
47 27 181 135 222 178 102 107 220 297 271 436 56 152 101 436 92 572 l-3 47
-75 -62z"/>
<path d="M2145 2535 c-148 -68 -266 -118 -353 -150 -95 -35 -121 -49 -109 -61
6 -6 92 28 300 118 87 37 169 71 182 74 14 3 25 12 25 20 0 17 -6 17 -45 -1z"/>
<path d="M4985 2517 c-21 -12 -53 -42 -70 -65 -26 -38 -30 -52 -30 -111 0 -57
4 -74 27 -109 53 -79 150 -113 241 -83 48 16 113 89 127 142 18 67 5 120 -43
175 -22 25 -56 53 -74 60 -50 22 -131 17 -178 -9z"/>
<path d="M2875 2341 c-33 -15 -85 -39 -115 -54 -30 -14 -111 -51 -180 -82
-127 -57 -149 -70 -137 -81 7 -7 60 14 212 86 55 25 144 64 198 85 72 29 97
44 97 57 0 23 -2 22 -75 -11z"/>
<path d="M1454 2241 c-120 -51 -224 -109 -224 -126 0 -24 19 -27 48 -6 32 22
235 125 270 135 23 8 31 36 10 36 -7 0 -54 -18 -104 -39z"/>
<path d="M3485 2164 c-60 -37 -167 -95 -236 -130 l-126 -64 29 -97 c16 -54 53
-181 83 -283 29 -102 61 -205 70 -230 9 -25 19 -53 22 -62 10 -32 30 -19 75
45 109 153 178 396 193 673 3 60 8 133 10 162 3 28 2 52 -2 52 -5 0 -57 -30
-118 -66z"/>
<path d="M2195 2036 c-61 -30 -157 -75 -215 -101 -108 -48 -130 -61 -130 -76
0 -18 32 -7 166 59 137 68 261 125 297 136 19 6 19 27 1 33 -5 2 -59 -21 -119
-51z"/>
<path d="M2910 1860 c-52 -27 -148 -72 -212 -101 -65 -29 -118 -56 -118 -61 0
-4 33 -45 74 -90 145 -163 320 -288 479 -343 43 -15 81 -25 83 -22 3 2 -4 29
-15 58 -11 30 -41 126 -67 214 -26 88 -62 212 -80 275 -19 63 -34 116 -34 118
0 7 -24 -3 -110 -48z"/>
<path d="M1687 1785 c-54 -19 -147 -82 -147 -100 0 -8 2 -15 5 -15 7 0 205
121 205 126 0 7 -24 3 -63 -11z"/>
<path d="M2335 1591 c-71 -38 -130 -73 -130 -79 0 -34 280 -194 424 -242 76
-26 301 -66 301 -54 0 2 -22 18 -48 36 -132 90 -271 224 -400 385 l-17 22
-130 -68z"/>
<path d="M4576 1427 c-37 -37 -43 -74 -20 -116 22 -40 59 -56 111 -46 77 14
109 94 60 151 -18 20 -35 28 -74 31 -45 5 -55 2 -77 -20z"/>
<path d="M5658 693 c6 -2 12 -14 11 -26 0 -21 -1 -21 -9 -2 l-9 20 -1 -20 c-1
-18 -2 -17 -11 4 -5 13 -12 21 -15 18 -11 -11 16 -45 33 -43 26 4 31 56 6 55
-10 0 -13 -3 -5 -6z"/>
<path d="M5602 670 c0 -14 2 -19 5 -12 2 6 2 18 0 25 -3 6 -5 1 -5 -13z"/>
<path d="M3263 666 c-186 -59 -257 -257 -146 -403 14 -18 54 -47 90 -65 88
-43 164 -45 244 -6 82 41 87 48 91 158 l3 95 -107 3 -108 3 0 -52 0 -52 55 7
c52 6 55 5 55 -16 0 -33 -11 -45 -52 -62 -60 -25 -133 -3 -181 54 -37 44 -43
88 -19 142 38 88 139 118 232 69 l43 -22 38 38 39 38 -36 24 c-44 30 -129 60
-169 60 -16 0 -49 -6 -72 -13z"/>
<path d="M4219 656 c-98 -40 -149 -93 -175 -183 -25 -85 -3 -156 68 -225 115
-110 284 -111 392 -2 21 21 47 57 57 79 24 52 24 138 0 190 -38 84 -163 166
-251 165 -19 0 -60 -11 -91 -24z m176 -115 c41 -23 75 -77 75 -118 0 -102
-116 -179 -211 -139 -69 29 -119 86 -119 136 0 32 37 98 65 116 56 36 132 38
190 5z"/>
<path d="M5378 673 l-178 -3 0 -250 0 -250 180 0 180 0 0 55 0 55 -119 0
c-130 0 -131 1 -131 61 l0 29 110 0 110 0 0 28 c0 15 3 37 6 50 6 22 6 22
-110 22 l-117 0 3 47 3 47 122 0 123 1 0 58 c0 31 -1 56 -2 55 -2 -1 -83 -4
-180 -5z"/>
<path d="M404 498 c3 -95 5 -208 6 -250 l0 -78 180 0 180 0 0 55 0 55 -125 0
-125 0 0 46 0 46 115 -3 115 -4 0 52 0 53 -120 0 -120 0 0 45 0 44 132 3 132
3 0 53 1 52 -188 0 -187 0 4 -172z"/>
<path d="M864 593 c18 -43 49 -116 69 -163 20 -47 54 -124 76 -172 l41 -88 44
0 44 0 32 68 c17 37 61 141 96 232 36 91 70 169 75 175 19 19 7 25 -54 25
l-63 0 -36 -92 c-21 -51 -49 -126 -64 -166 -15 -40 -30 -70 -34 -65 -3 4 -21
49 -39 98 -18 50 -47 120 -63 158 l-31 67 -63 0 -62 0 32 -77z"/>
<path d="M1421 423 c3 -137 6 -249 7 -251 1 -1 82 -1 180 0 l177 3 0 50 0 50
-127 3 -128 3 0 44 0 45 110 0 110 0 0 50 0 50 -110 0 -110 0 0 45 0 45 48 0
c27 0 83 3 125 6 l77 7 0 48 0 49 -182 0 -183 0 6 -247z"/>
<path d="M1890 420 l0 -250 50 0 c28 0 51 1 51 3 1 1 4 67 8 147 l6 145 69
-80 c37 -44 89 -110 115 -148 l46 -67 45 2 45 3 3 248 2 247 -55 0 -55 0 0
-146 0 -147 -32 41 c-18 22 -73 88 -122 146 -88 105 -90 106 -133 106 l-43 0
0 -250z"/>
<path d="M2430 615 l0 -55 75 0 75 0 0 -195 0 -195 55 0 55 0 0 195 0 195 75
0 76 0 -3 55 -3 55 -202 0 -203 0 0 -55z"/>
<path d="M3658 533 c-3 -76 -5 -187 -4 -248 l1 -110 178 -3 177 -2 0 55 0 55
-119 0 c-99 0 -120 3 -125 16 -3 9 -6 96 -6 195 l0 179 -49 0 -48 0 -5 -137z"/>
<path d="M4680 419 l0 -251 159 4 c143 3 162 5 188 24 63 47 90 123 62 175 -5
11 -25 29 -42 39 -18 11 -27 20 -20 20 19 0 53 65 53 101 0 49 -33 97 -83 119
-35 16 -66 20 -179 20 l-138 0 0 -251z m278 129 c19 -16 14 -56 -7 -68 -11 -5
-49 -10 -85 -10 l-66 0 0 48 0 48 73 -4 c39 -2 78 -9 85 -14z m7 -190 c25 -11
32 -32 16 -56 -8 -13 -167 -40 -175 -31 -2 2 -6 25 -8 52 l-6 47 74 0 c40 0
85 -5 99 -12z"/>
</g>
</svg>
