<svg version="1.1" xmlns="http://www.w3.org/2000/svg" xmlns:xlink="http://www.w3.org/1999/xlink" width="576.000000pt" height="494.000000pt" viewBox="0,0,256,219.55209"><g fill="#000080" fill-rule="nonzero" stroke="none" stroke-width="1" stroke-linecap="butt" stroke-linejoin="miter" stroke-miterlimit="10" stroke-dasharray="" stroke-dashoffset="0" font-family="none" font-weight="none" font-size="none" text-anchor="none" style="mix-blend-mode: normal"><g transform="translate(-7.09658,-5.70376) scale(0.44444,0.44444)"><g transform="translate(0,494) scale(0.1,-0.1)"><path d="M2790,4513c-249,-26 -449,-82 -640,-179c-252,-128 -428,-266 -594,-465c-211,-251 -336,-513 -391,-819c-19,-102 -32,-360 -19,-360c5,0 41,12 79,26c39,14 117,42 176,62l105,36l12,166c17,237 66,419 171,635c119,244 273,414 501,552c178,107 344,154 614,173c246,17 474,-31 685,-143c133,-71 259,-166 374,-283l45,-46l60,41c33,22 82,61 109,86l48,45l-57,55c-127,120 -392,272 -578,333c-223,73 -498,106 -700,85z"></path><path d="M1173,4325c-46,-20 -68,-68 -54,-116c18,-61 82,-86 145,-58c26,12 56,63 56,96c0,26 -26,61 -60,78c-35,18 -46,18 -87,0z"></path><path d="M4056,4316c-56,-10 -79,-27 -58,-40c5,-3 54,-13 108,-21c54,-9 119,-27 144,-39c42,-21 45,-25 44,-62c-2,-132 -294,-380 -724,-616c-112,-61 -497,-237 -700,-320c-107,-43 -226,-92 -265,-108c-162,-66 -545,-205 -995,-360c-474,-163 -535,-189 -640,-275c-135,-111 -186,-254 -120,-338c23,-29 95,-65 154,-76c49,-9 67,-5 59,15c-21,56 157,155 677,374c107,45 224,95 260,110c36,16 110,46 165,69c89,35 220,93 425,188c36,17 99,45 140,63c289,126 781,398 975,539c109,79 385,299 439,350c100,94 224,243 261,312c71,136 50,206 -71,235c-70,16 -195,16 -278,0z"></path><path d="M2849,4215c23,-14 45,-25 48,-25c10,0 138,-83 195,-127c31,-23 88,-75 126,-113c70,-71 91,-98 195,-262l56,-87l43,23c250,135 308,168 308,171c0,1 -17,23 -38,49c-79,95 -299,233 -492,309c-112,44 -325,87 -430,87h-55z"></path><path d="M2667,4033c62,-156 148,-414 192,-577c16,-59 32,-110 35,-113c8,-9 456,190 456,202c0,15 -48,97 -95,165c-145,205 -333,357 -539,434c-112,42 -111,45 -49,-111z"></path><path d="M2448,4113c-74,-80 -154,-327 -177,-553c-16,-152 -25,-456 -14,-463c5,-3 43,6 84,22c41,15 144,54 229,86c85,31 165,61 178,66c21,8 23,13 16,57c-4,26 -20,88 -35,137c-16,50 -29,95 -29,101c0,31 -158,473 -194,542c-9,18 -20,32 -24,32c-5,0 -20,-12 -34,-27z"></path><path d="M4598,4022c-4,-73 -10,-98 -36,-151c-101,-201 -414,-479 -799,-709c-174,-105 -488,-270 -648,-340c-399,-176 -537,-234 -697,-292c-103,-38 -354,-141 -488,-200c-36,-16 -104,-45 -151,-64c-207,-83 -472,-231 -576,-322c-134,-118 -162,-274 -64,-357c31,-26 66,-39 143,-52c34,-6 36,-5 43,24c9,42 51,92 137,162c149,123 390,250 983,517c467,211 647,299 845,414c450,263 731,466 1064,772c209,192 351,404 350,520c-1,55 -13,86 -48,124c-48,53 -53,49 -58,-46z"></path><path d="M2246,4065c-105,-55 -275,-229 -380,-388c-120,-183 -226,-524 -226,-726v-91l113,41c61,23 171,62 243,88l132,46l5,250c6,257 19,381 56,515c32,117 38,135 66,206c15,36 25,68 23,70c-2,2 -16,-3 -32,-11z"></path><path d="M4250,3747c-42,-39 -107,-99 -145,-133c-67,-58 -69,-62 -58,-87c7,-15 18,-27 25,-27c17,1 134,95 232,187l78,73l-22,30c-12,16 -24,30 -28,30c-4,0 -41,-33 -82,-73z"></path><path d="M4796,3659c-7,-76 -51,-161 -157,-302c-170,-229 -416,-433 -774,-643c-44,-26 -100,-59 -125,-74c-96,-59 -458,-245 -561,-290c-41,-18 -101,-45 -134,-60c-161,-77 -329,-150 -515,-225c-233,-95 -274,-113 -530,-237c-298,-144 -441,-239 -525,-351c-67,-89 -79,-141 -46,-213c15,-33 30,-47 74,-68c46,-23 68,-27 143,-28c86,-1 204,18 204,32c0,4 -33,13 -74,19c-92,15 -106,28 -78,73c46,74 212,186 487,328c198,103 205,106 355,175c169,78 693,346 839,429c73,42 135,76 136,76c2,0 61,34 132,76c127,76 234,147 453,301c214,150 451,373 581,546c141,187 185,292 180,429c-1,24 -34,68 -51,68c-4,0 -10,-28 -14,-61z"></path><path d="M3920,3459c-194,-138 -285,-202 -298,-206c-19,-8 -11,-48 9,-47c26,2 363,218 389,249c9,11 10,24 4,44l-9,28z"></path><path d="M4465,3415c-95,-94 -226,-218 -268,-252c-38,-30 -38,-31 -27,-72c6,-22 13,-41 16,-41c20,0 242,198 323,290l60,67l-22,34l-22,35z"></path><path d="M3335,3084c-82,-46 -187,-103 -232,-126c-46,-24 -83,-48 -83,-55c0,-9 10,-8 38,4c34,14 329,160 397,197c17,9 36,16 43,16c15,0 12,42 -3,46c-5,1 -77,-36 -160,-82z"></path><path d="M4918,3081c-26,-24 -33,-36 -33,-69c0,-52 33,-81 89,-82c87,0 127,91 67,151c-39,38 -80,39 -123,0z"></path><path d="M794,3089c-27,-14 -54,-60 -54,-94c0,-38 44,-75 90,-75c66,0 118,74 89,127c-24,44 -80,63 -125,42z"></path><path d="M4515,2912c-77,-80 -162,-160 -190,-177l-49,-32l2,-119c5,-197 -29,-429 -90,-609c-81,-240 -323,-550 -524,-672c-108,-66 -265,-127 -393,-153c-196,-40 -537,-22 -726,37c-140,44 -316,143 -415,232c-25,22 -51,41 -58,41c-15,0 -157,-94 -168,-111c-10,-17 31,-48 161,-123c261,-150 488,-221 782,-247c422,-38 873,116 1238,423c176,147 304,307 402,501c150,296 214,614 194,969c-5,86 -13,164 -18,172c-6,11 -41,-20 -148,-132z"></path><path d="M3955,2980c-49,-38 -129,-95 -177,-127c-73,-48 -88,-62 -88,-84c0,-14 3,-28 6,-31c7,-8 114,53 259,145c61,38 111,71 113,73c6,4 -10,94 -17,93c-3,0 -46,-31 -96,-69z"></path><path d="M2740,2786c-80,-34 -167,-74 -195,-88c-27,-14 -86,-38 -130,-53c-86,-30 -112,-45 -78,-45c19,0 200,69 288,110c79,37 238,100 251,100c8,0 14,9 14,20c0,11 -1,20 -2,20c-2,0 -68,-29 -148,-64z"></path><path d="M3564,2710c-16,-16 -124,-81 -211,-126c-45,-24 -99,-54 -120,-67c-21,-14 -67,-39 -101,-56c-69,-35 -77,-61 -9,-32c23,10 110,54 192,97c83,43 178,92 212,109c47,23 62,35 62,52c1,25 -12,36 -25,23z"></path><path d="M4070,2538c-82,-67 -282,-201 -317,-212c-18,-6 -20,-12 -16,-45c8,-59 -15,-356 -37,-483c-23,-132 -45,-204 -105,-340c-24,-54 -38,-95 -32,-91c47,27 181,135 222,178c102,107 220,297 271,436c56,152 101,436 92,572l-3,47z"></path><path d="M2145,2535c-148,-68 -266,-118 -353,-150c-95,-35 -121,-49 -109,-61c6,-6 92,28 300,118c87,37 169,71 182,74c14,3 25,12 25,20c0,17 -6,17 -45,-1z"></path><path d="M4985,2517c-21,-12 -53,-42 -70,-65c-26,-38 -30,-52 -30,-111c0,-57 4,-74 27,-109c53,-79 150,-113 241,-83c48,16 113,89 127,142c18,67 5,120 -43,175c-22,25 -56,53 -74,60c-50,22 -131,17 -178,-9z"></path><path d="M2875,2341c-33,-15 -85,-39 -115,-54c-30,-14 -111,-51 -180,-82c-127,-57 -149,-70 -137,-81c7,-7 60,14 212,86c55,25 144,64 198,85c72,29 97,44 97,57c0,23 -2,22 -75,-11z"></path><path d="M1454,2241c-120,-51 -224,-109 -224,-126c0,-24 19,-27 48,-6c32,22 235,125 270,135c23,8 31,36 10,36c-7,0 -54,-18 -104,-39z"></path><path d="M3485,2164c-60,-37 -167,-95 -236,-130l-126,-64l29,-97c16,-54 53,-181 83,-283c29,-102 61,-205 70,-230c9,-25 19,-53 22,-62c10,-32 30,-19 75,45c109,153 178,396 193,673c3,60 8,133 10,162c3,28 2,52 -2,52c-5,0 -57,-30 -118,-66z"></path><path d="M2195,2036c-61,-30 -157,-75 -215,-101c-108,-48 -130,-61 -130,-76c0,-18 32,-7 166,59c137,68 261,125 297,136c19,6 19,27 1,33c-5,2 -59,-21 -119,-51z"></path><path d="M2910,1860c-52,-27 -148,-72 -212,-101c-65,-29 -118,-56 -118,-61c0,-4 33,-45 74,-90c145,-163 320,-288 479,-343c43,-15 81,-25 83,-22c3,2 -4,29 -15,58c-11,30 -41,126 -67,214c-26,88 -62,212 -80,275c-19,63 -34,116 -34,118c0,7 -24,-3 -110,-48z"></path><path d="M1687,1785c-54,-19 -147,-82 -147,-100c0,-8 2,-15 5,-15c7,0 205,121 205,126c0,7 -24,3 -63,-11z"></path><path d="M2335,1591c-71,-38 -130,-73 -130,-79c0,-34 280,-194 424,-242c76,-26 301,-66 301,-54c0,2 -22,18 -48,36c-132,90 -271,224 -400,385l-17,22z"></path><path d="M4576,1427c-37,-37 -43,-74 -20,-116c22,-40 59,-56 111,-46c77,14 109,94 60,151c-18,20 -35,28 -74,31c-45,5 -55,2 -77,-20z"></path><path d="M5658,693c6,-2 12,-14 11,-26c0,-21 -1,-21 -9,-2l-9,20l-1,-20c-1,-18 -2,-17 -11,4c-5,13 -12,21 -15,18c-11,-11 16,-45 33,-43c26,4 31,56 6,55c-10,0 -13,-3 -5,-6z"></path><path d="M5602,670c0,-14 2,-19 5,-12c2,6 2,18 0,25c-3,6 -5,1 -5,-13z"></path><path d="M3263,666c-186,-59 -257,-257 -146,-403c14,-18 54,-47 90,-65c88,-43 164,-45 244,-6c82,41 87,48 91,158l3,95l-107,3l-108,3v-52v-52l55,7c52,6 55,5 55,-16c0,-33 -11,-45 -52,-62c-60,-25 -133,-3 -181,54c-37,44 -43,88 -19,142c38,88 139,118 232,69l43,-22l38,38l39,38l-36,24c-44,30 -129,60 -169,60c-16,0 -49,-6 -72,-13z"></path><path d="M4219,656c-98,-40 -149,-93 -175,-183c-25,-85 -3,-156 68,-225c115,-110 284,-111 392,-2c21,21 47,57 57,79c24,52 24,138 0,190c-38,84 -163,166 -251,165c-19,0 -60,-11 -91,-24zM4395,541c41,-23 75,-77 75,-118c0,-102 -116,-179 -211,-139c-69,29 -119,86 -119,136c0,32 37,98 65,116c56,36 132,38 190,5z"></path><path d="M5378,673l-178,-3v-250v-250h180h180v55v55h-119c-130,0 -131,1 -131,61v29h110h110v28c0,15 3,37 6,50c6,22 6,22 -110,22h-117l3,47l3,47h122l123,1v58c0,31 -1,56 -2,55c-2,-1 -83,-4 -180,-5z"></path><path d="M404,498c3,-95 5,-208 6,-250v-78h180h180v55v55h-125h-125v46v46l115,-3l115,-4v52v53h-120h-120v45v44l132,3l132,3v53l1,52h-188h-187z"></path><path d="M864,593c18,-43 49,-116 69,-163c20,-47 54,-124 76,-172l41,-88h44h44l32,68c17,37 61,141 96,232c36,91 70,169 75,175c19,19 7,25 -54,25h-63l-36,-92c-21,-51 -49,-126 -64,-166c-15,-40 -30,-70 -34,-65c-3,4 -21,49 -39,98c-18,50 -47,120 -63,158l-31,67h-63h-62z"></path><path d="M1421,423c3,-137 6,-249 7,-251c1,-1 82,-1 180,0l177,3v50v50l-127,3l-128,3v44v45h110h110v50v50h-110h-110v45v45h48c27,0 83,3 125,6l77,7v48v49h-182h-183z"></path><path d="M1890,420v-250h50c28,0 51,1 51,3c1,1 4,67 8,147l6,145l69,-80c37,-44 89,-110 115,-148l46,-67l45,2l45,3l3,248l2,247h-55h-55v-146v-147l-32,41c-18,22 -73,88 -122,146c-88,105 -90,106 -133,106h-43z"></path><path d="M2430,615v-55h75h75v-195v-195h55h55v195v195h75h76l-3,55l-3,55h-202h-203z"></path><path d="M3658,533c-3,-76 -5,-187 -4,-248l1,-110l178,-3l177,-2v55v55h-119c-99,0 -120,3 -125,16c-3,9 -6,96 -6,195v179h-49h-48z"></path><path d="M4680,419v-251l159,4c143,3 162,5 188,24c63,47 90,123 62,175c-5,11 -25,29 -42,39c-18,11 -27,20 -20,20c19,0 53,65 53,101c0,49 -33,97 -83,119c-35,16 -66,20 -179,20h-138zM4958,548c19,-16 14,-56 -7,-68c-11,-5 -49,-10 -85,-10h-66v48v48l73,-4c39,-2 78,-9 85,-14zM4965,358c25,-11 32,-32 16,-56c-8,-13 -167,-40 -175,-31c-2,2 -6,25 -8,52l-6,47h74c40,0 85,-5 99,-12z"></path></g></g></g></svg>